<?xml version="1.0" encoding="utf-8"?>
<!-- Generator: Adobe Illustrator 22.1.0, SVG Export Plug-In . SVG Version: 6.00 Build 0)  -->
<svg version="1.1" id="Layer_1" xmlns="http://www.w3.org/2000/svg" xmlns:xlink="http://www.w3.org/1999/xlink" x="0px" y="0px"
	 viewBox="0 0 400 400" style="enable-background:new 0 0 400 400;" xml:space="preserve">
<style type="text/css">
	.st0{fill:#D95468;}
</style>
<g id="GraphQL_Logo">
	<g>
		<g>
			<g>
				<rect x="122" y="230.1" transform="matrix(0.5 -0.866 0.866 0.5 -214.2189 274.1888)" class="st0" width="16.6" height="185"/>
			</g>
		</g>
		<g>
			<g>
				<rect x="261.3" y="-10.9" transform="matrix(0.5 -0.866 0.866 0.5 64.1682 274.2639)" class="st0" width="16.6" height="185"/>
			</g>
		</g>
		<g>
			<g>
				<rect x="37.9" y="73.2" transform="matrix(0.866 -0.5 0.5 0.866 -23.2894 76.1231)" class="st0" width="185" height="16.6"/>
			</g>
		</g>
		<g>
			<g>
				<rect x="52.5" y="109.6" class="st0" width="16.6" height="185"/>
			</g>
		</g>
		<g>
			<g>
				<rect x="330.9" y="109.6" class="st0" width="16.6" height="185"/>
			</g>
		</g>
		<g>
			<g>
				<rect x="189.1" y="315.3" transform="matrix(0.866 -0.5 0.5 0.866 -125.168 177.99)" class="st0" width="160.9" height="14.5"/>
			</g>
		</g>
		<path class="st0" d="M369.5,300c-9.6,16.7-31,22.4-47.7,12.8s-22.4-31-12.8-47.7s31-22.4,47.7-12.8
			C373.5,262,379.2,283.3,369.5,300"/>
		<path class="st0" d="M90.9,139.1c-9.6,16.7-31,22.4-47.7,12.8c-16.7-9.6-22.4-31-12.8-47.7s31-22.4,47.7-12.8
			C94.8,101.1,100.5,122.4,90.9,139.1"/>
		<path class="st0" d="M30.5,300c-9.6-16.7-3.9-38,12.8-47.7c16.7-9.6,38-3.9,47.7,12.8c9.6,16.7,3.9,38-12.8,47.7
			C61.4,322.4,40.1,316.7,30.5,300"/>
		<path class="st0" d="M309.1,139.1c-9.6-16.7-3.9-38,12.8-47.7c16.7-9.6,38-3.9,47.7,12.8c9.6,16.7,3.9,38-12.8,47.7
			C340.1,161.5,318.7,155.8,309.1,139.1"/>
		<path class="st0" d="M200,397.9c-19.3,0-34.9-15.6-34.9-34.9s15.6-34.9,34.9-34.9s34.9,15.6,34.9,34.9
			C234.9,382.2,219.3,397.9,200,397.9"/>
		<path class="st0" d="M200,76.1c-19.3,0-34.9-15.6-34.9-34.9S180.7,6.3,200,6.3s34.9,15.6,34.9,34.9S219.3,76.1,200,76.1"/>
	</g>
</g>
<g id="Layer_2_1_">
	<g id="g1" transform="matrix(1.8288872,0,0,-1.8288872,-29.199695,629.1997)">
		<g id="g2" transform="scale(1,-1)">
			<path id="p1" class="st0" d="M123.2-211.7c-1.3-1.9-8.4-12.3-8.4-12.3l5.4,14.8l-16.7,2.4l16.7,2.4l-6.5,12.7
				c0,0,8.1-8.5,9.2-9.7c-0.5,18.4-0.6,22.9-0.6,22.9S81-197.7,104-240c0,0-28.6-31.6-2.7-51c0,0-44.2,26.7-16.2,72.6
				c0,0-23.2-22.7-11.1-45.6c0,0-21,29.7,4.6,62.3c0,0-7-4.3-13.2-20.8c0,0,4.5,49,59.3,49.6l0,0c0.2,0,0.4,0,0.5,0
				c0.2,0,0.4,0,0.5,0l0,0c54.8-0.6,59.3-49.6,59.3-49.6c-6.2,16.5-13.2,20.8-13.2,20.8c25.6-32.6,4.6-62.3,4.6-62.3
				c12.1,22.9-11.1,45.6-11.1,45.6c28.1-45.9-16.2-72.6-16.2-72.6c25.9,19.4-2.7,51-2.7,51c22.9,42.3-18.3,61.5-18.3,61.5
				s-0.1-4.5-0.6-22.9c1.1,1.2,9.2,9.7,9.2,9.7l-6.5-12.7l16.7-2.4l-16.7-2.4l5.4-14.8c0,0-7.1,10.3-8.4,12.3
				c-0.6-23.5-2.1-81.7-2.1-82c0-0.6,0-0.6,0-0.6s0,0,0,0.3c0-0.3,0-0.3,0-0.3s0,0,0,0.6C125.3-293.3,123.8-235.1,123.2-211.7
				L123.2-211.7z"/>
		</g>
	</g>
</g>
</svg>
